<svg width="266" height="21" viewBox="0 0 266 21" fill="none" xmlns="http://www.w3.org/2000/svg">
<path d="M8.584 4.816V16H7.464V10.768H1.4V16H0.28V4.816H1.4V9.84H7.464V4.816H8.584ZM14.9634 16.128C14.142 16.128 13.4007 15.9467 12.7394 15.584C12.0887 15.2107 11.5714 14.688 11.1874 14.016C10.814 13.3333 10.6274 12.5387 10.6274 11.632C10.6274 10.7253 10.8194 9.936 11.2034 9.264C11.5874 8.58133 12.11 8.05867 12.7714 7.696C13.4327 7.32267 14.174 7.136 14.9954 7.136C15.8167 7.136 16.558 7.32267 17.2194 7.696C17.8914 8.05867 18.414 8.58133 18.7874 9.264C19.1714 9.936 19.3634 10.7253 19.3634 11.632C19.3634 12.528 19.1714 13.3173 18.7874 14C18.4034 14.6827 17.8754 15.2107 17.2034 15.584C16.5314 15.9467 15.7847 16.128 14.9634 16.128ZM14.9634 15.152C15.5394 15.152 16.0727 15.024 16.5634 14.768C17.054 14.5013 17.4487 14.1067 17.7474 13.584C18.0567 13.0507 18.2114 12.4 18.2114 11.632C18.2114 10.864 18.062 10.2187 17.7634 9.696C17.4647 9.16267 17.07 8.768 16.5794 8.512C16.0887 8.24533 15.5554 8.112 14.9794 8.112C14.4034 8.112 13.87 8.24533 13.3794 8.512C12.8887 8.768 12.494 9.16267 12.1954 9.696C11.9074 10.2187 11.7634 10.864 11.7634 11.632C11.7634 12.4 11.9074 13.0507 12.1954 13.584C12.494 14.1067 12.8834 14.5013 13.3634 14.768C13.854 15.024 14.3874 15.152 14.9634 15.152ZM31.805 7.104C32.829 7.104 33.661 7.42933 34.301 8.08C34.9517 8.72 35.277 9.65333 35.277 10.88V16H34.173V11.008C34.173 10.0587 33.9437 9.33333 33.485 8.832C33.0263 8.33067 32.4023 8.08 31.613 8.08C30.7917 8.08 30.1357 8.352 29.645 8.896C29.1543 9.44 28.909 10.2293 28.909 11.264V16H27.805V11.008C27.805 10.0587 27.5757 9.33333 27.117 8.832C26.6583 8.33067 26.029 8.08 25.229 8.08C24.4077 8.08 23.7517 8.352 23.261 8.896C22.7703 9.44 22.525 10.2293 22.525 11.264V16H21.405V7.264H22.525V8.768C22.8023 8.224 23.197 7.81333 23.709 7.536C24.221 7.248 24.7917 7.104 25.421 7.104C26.1783 7.104 26.8397 7.28533 27.405 7.648C27.981 8.01067 28.397 8.544 28.653 9.248C28.8877 8.55467 29.2877 8.02667 29.853 7.664C30.429 7.29067 31.0797 7.104 31.805 7.104ZM45.6684 11.184C45.6684 11.568 45.6577 11.8613 45.6364 12.064H38.3884C38.4204 12.7253 38.5804 13.2907 38.8684 13.76C39.1564 14.2293 39.535 14.5867 40.0044 14.832C40.4737 15.0667 40.9857 15.184 41.5404 15.184C42.2657 15.184 42.8737 15.008 43.3644 14.656C43.8657 14.304 44.1964 13.8293 44.3564 13.232H45.5404C45.327 14.0853 44.8684 14.784 44.1644 15.328C43.471 15.8613 42.5964 16.128 41.5404 16.128C40.719 16.128 39.983 15.9467 39.3324 15.584C38.6817 15.2107 38.1697 14.688 37.7964 14.016C37.4337 13.3333 37.2524 12.5387 37.2524 11.632C37.2524 10.7253 37.4337 9.93067 37.7964 9.248C38.159 8.56533 38.6657 8.04267 39.3164 7.68C39.967 7.31733 40.7084 7.136 41.5404 7.136C42.3724 7.136 43.0977 7.31733 43.7164 7.68C44.3457 8.04267 44.8257 8.53333 45.1564 9.152C45.4977 9.76 45.6684 10.4373 45.6684 11.184ZM44.5324 11.152C44.543 10.5013 44.4097 9.94667 44.1324 9.488C43.8657 9.02933 43.4977 8.68267 43.0284 8.448C42.559 8.21333 42.047 8.096 41.4924 8.096C40.6604 8.096 39.951 8.36267 39.3644 8.896C38.7777 9.42933 38.4524 10.1813 38.3884 11.152H44.5324ZM57.0841 0.959999L52.6681 18.656H51.5641L55.9481 0.959999H57.0841ZM63.0493 10.4C63.0493 9.30133 63.2893 8.32 63.7693 7.456C64.2493 6.58133 64.9053 5.904 65.7373 5.424C66.5693 4.93333 67.4973 4.688 68.5213 4.688C69.7693 4.688 70.8359 4.98667 71.7213 5.584C72.6173 6.17067 73.2679 7.00267 73.6733 8.08H72.3613C72.0413 7.32267 71.5506 6.73067 70.8893 6.304C70.2386 5.87733 69.4493 5.664 68.5213 5.664C67.6999 5.664 66.9586 5.856 66.2973 6.24C65.6466 6.624 65.1346 7.17867 64.7613 7.904C64.3879 8.61867 64.2013 9.45067 64.2013 10.4C64.2013 11.3493 64.3879 12.1813 64.7613 12.896C65.1346 13.6107 65.6466 14.16 66.2973 14.544C66.9586 14.928 67.6999 15.12 68.5213 15.12C69.4493 15.12 70.2386 14.912 70.8893 14.496C71.5506 14.0693 72.0413 13.4827 72.3613 12.736H73.6733C73.2679 13.8027 72.6173 14.6293 71.7213 15.216C70.8253 15.8027 69.7586 16.096 68.5213 16.096C67.4973 16.096 66.5693 15.856 65.7373 15.376C64.9053 14.8853 64.2493 14.208 63.7693 13.344C63.2893 12.48 63.0493 11.4987 63.0493 10.4ZM75.393 11.616C75.393 10.72 75.569 9.936 75.921 9.264C76.2837 8.58133 76.7797 8.05867 77.409 7.696C78.049 7.32267 78.769 7.136 79.569 7.136C80.401 7.136 81.1157 7.328 81.713 7.712C82.321 8.096 82.7583 8.58667 83.025 9.184V7.264H84.145V16H83.025V14.064C82.7477 14.6613 82.305 15.1573 81.697 15.552C81.0997 15.936 80.385 16.128 79.553 16.128C78.7637 16.128 78.049 15.9413 77.409 15.568C76.7797 15.1947 76.2837 14.6667 75.921 13.984C75.569 13.3013 75.393 12.512 75.393 11.616ZM83.025 11.632C83.025 10.928 82.881 10.3093 82.593 9.776C82.305 9.24267 81.9103 8.832 81.409 8.544C80.9183 8.256 80.3743 8.112 79.777 8.112C79.1583 8.112 78.6037 8.25067 78.113 8.528C77.6223 8.80533 77.233 9.21067 76.945 9.744C76.6677 10.2667 76.529 10.8907 76.529 11.616C76.529 12.3307 76.6677 12.96 76.945 13.504C77.233 14.0373 77.6223 14.448 78.113 14.736C78.6037 15.0133 79.1583 15.152 79.777 15.152C80.3743 15.152 80.9183 15.008 81.409 14.72C81.9103 14.432 82.305 14.0213 82.593 13.488C82.881 12.9547 83.025 12.336 83.025 11.632ZM88.1579 8.208V13.632C88.1579 14.1653 88.2592 14.5333 88.4619 14.736C88.6645 14.9387 89.0219 15.04 89.5339 15.04H90.5579V16H89.3579C88.5685 16 87.9819 15.8187 87.5979 15.456C87.2139 15.0827 87.0219 14.4747 87.0219 13.632V8.208H85.8059V7.264H87.0219V5.072H88.1579V7.264H90.5579V8.208H88.1579ZM100.309 11.184C100.309 11.568 100.298 11.8613 100.277 12.064H93.029C93.061 12.7253 93.221 13.2907 93.509 13.76C93.797 14.2293 94.1757 14.5867 94.645 14.832C95.1143 15.0667 95.6263 15.184 96.181 15.184C96.9063 15.184 97.5143 15.008 98.005 14.656C98.5063 14.304 98.837 13.8293 98.997 13.232H100.181C99.9677 14.0853 99.509 14.784 98.805 15.328C98.1117 15.8613 97.237 16.128 96.181 16.128C95.3597 16.128 94.6237 15.9467 93.973 15.584C93.3223 15.2107 92.8103 14.688 92.437 14.016C92.0743 13.3333 91.893 12.5387 91.893 11.632C91.893 10.7253 92.0743 9.93067 92.437 9.248C92.7997 8.56533 93.3063 8.04267 93.957 7.68C94.6077 7.31733 95.349 7.136 96.181 7.136C97.013 7.136 97.7383 7.31733 98.357 7.68C98.9863 8.04267 99.4663 8.53333 99.797 9.152C100.138 9.76 100.309 10.4373 100.309 11.184ZM99.173 11.152C99.1837 10.5013 99.0503 9.94667 98.773 9.488C98.5063 9.02933 98.1383 8.68267 97.669 8.448C97.1997 8.21333 96.6877 8.096 96.133 8.096C95.301 8.096 94.5917 8.36267 94.005 8.896C93.4183 9.42933 93.093 10.1813 93.029 11.152H99.173ZM106.022 7.136C106.843 7.136 107.558 7.328 108.166 7.712C108.774 8.096 109.211 8.58133 109.478 9.168V7.264H110.598V16.224C110.598 17.024 110.422 17.7333 110.07 18.352C109.729 18.9707 109.249 19.4453 108.63 19.776C108.011 20.1173 107.307 20.288 106.518 20.288C105.398 20.288 104.465 20.0213 103.718 19.488C102.982 18.9547 102.523 18.2293 102.342 17.312H103.446C103.638 17.92 104.001 18.4053 104.534 18.768C105.078 19.1307 105.739 19.312 106.518 19.312C107.083 19.312 107.59 19.1893 108.038 18.944C108.486 18.7093 108.838 18.3573 109.094 17.888C109.35 17.4187 109.478 16.864 109.478 16.224V14.064C109.201 14.6613 108.758 15.1573 108.15 15.552C107.553 15.936 106.843 16.128 106.022 16.128C105.222 16.128 104.502 15.9413 103.862 15.568C103.233 15.1947 102.737 14.6667 102.374 13.984C102.022 13.3013 101.846 12.512 101.846 11.616C101.846 10.72 102.022 9.936 102.374 9.264C102.737 8.58133 103.233 8.05867 103.862 7.696C104.502 7.32267 105.222 7.136 106.022 7.136ZM109.478 11.632C109.478 10.928 109.334 10.3093 109.046 9.776C108.758 9.24267 108.363 8.832 107.862 8.544C107.371 8.256 106.827 8.112 106.23 8.112C105.611 8.112 105.057 8.25067 104.566 8.528C104.075 8.80533 103.686 9.21067 103.398 9.744C103.121 10.2667 102.982 10.8907 102.982 11.616C102.982 12.3307 103.121 12.96 103.398 13.504C103.686 14.0373 104.075 14.448 104.566 14.736C105.057 15.0133 105.611 15.152 106.23 15.152C106.827 15.152 107.371 15.008 107.862 14.72C108.363 14.432 108.758 14.0213 109.046 13.488C109.334 12.9547 109.478 12.336 109.478 11.632ZM116.979 16.128C116.158 16.128 115.416 15.9467 114.755 15.584C114.104 15.2107 113.587 14.688 113.203 14.016C112.83 13.3333 112.643 12.5387 112.643 11.632C112.643 10.7253 112.835 9.936 113.219 9.264C113.603 8.58133 114.126 8.05867 114.787 7.696C115.448 7.32267 116.19 7.136 117.011 7.136C117.832 7.136 118.574 7.32267 119.235 7.696C119.907 8.05867 120.43 8.58133 120.803 9.264C121.187 9.936 121.379 10.7253 121.379 11.632C121.379 12.528 121.187 13.3173 120.803 14C120.419 14.6827 119.891 15.2107 119.219 15.584C118.547 15.9467 117.8 16.128 116.979 16.128ZM116.979 15.152C117.555 15.152 118.088 15.024 118.579 14.768C119.07 14.5013 119.464 14.1067 119.763 13.584C120.072 13.0507 120.227 12.4 120.227 11.632C120.227 10.864 120.078 10.2187 119.779 9.696C119.48 9.16267 119.086 8.768 118.595 8.512C118.104 8.24533 117.571 8.112 116.995 8.112C116.419 8.112 115.886 8.24533 115.395 8.512C114.904 8.768 114.51 9.16267 114.211 9.696C113.923 10.2187 113.779 10.864 113.779 11.632C113.779 12.4 113.923 13.0507 114.211 13.584C114.51 14.1067 114.899 14.5013 115.379 14.768C115.87 15.024 116.403 15.152 116.979 15.152ZM124.541 8.816C124.786 8.272 125.159 7.85067 125.661 7.552C126.173 7.25333 126.797 7.104 127.533 7.104V8.272H127.229C126.418 8.272 125.767 8.49067 125.277 8.928C124.786 9.36533 124.541 10.096 124.541 11.12V16H123.421V7.264H124.541V8.816ZM136.418 7.264L131.234 20.112H130.066L131.762 15.952L128.178 7.264H129.41L132.386 14.72L135.266 7.264H136.418ZM147.303 0.959999L142.887 18.656H141.783L146.167 0.959999H147.303ZM160.932 8.032C160.932 8.992 160.617 9.76533 159.988 10.352C159.359 10.9387 158.415 11.232 157.156 11.232H154.9V16H153.78V4.816H157.156C158.404 4.816 159.343 5.10933 159.972 5.696C160.612 6.28267 160.932 7.06133 160.932 8.032ZM157.156 10.272C158.905 10.272 159.78 9.52533 159.78 8.032C159.78 7.28533 159.572 6.72 159.156 6.336C158.74 5.952 158.073 5.76 157.156 5.76H154.9V10.272H157.156ZM163.931 8.816C164.177 8.272 164.55 7.85067 165.051 7.552C165.563 7.25333 166.187 7.104 166.923 7.104V8.272H166.619C165.809 8.272 165.158 8.49067 164.667 8.928C164.177 9.36533 163.931 10.096 163.931 11.12V16H162.811V7.264H163.931V8.816ZM172.432 16.128C171.611 16.128 170.869 15.9467 170.208 15.584C169.557 15.2107 169.04 14.688 168.656 14.016C168.283 13.3333 168.096 12.5387 168.096 11.632C168.096 10.7253 168.288 9.936 168.672 9.264C169.056 8.58133 169.579 8.05867 170.24 7.696C170.901 7.32267 171.643 7.136 172.464 7.136C173.285 7.136 174.027 7.32267 174.688 7.696C175.36 8.05867 175.883 8.58133 176.256 9.264C176.64 9.936 176.832 10.7253 176.832 11.632C176.832 12.528 176.64 13.3173 176.256 14C175.872 14.6827 175.344 15.2107 174.672 15.584C174 15.9467 173.253 16.128 172.432 16.128ZM172.432 15.152C173.008 15.152 173.541 15.024 174.032 14.768C174.523 14.5013 174.917 14.1067 175.216 13.584C175.525 13.0507 175.68 12.4 175.68 11.632C175.68 10.864 175.531 10.2187 175.232 9.696C174.933 9.16267 174.539 8.768 174.048 8.512C173.557 8.24533 173.024 8.112 172.448 8.112C171.872 8.112 171.339 8.24533 170.848 8.512C170.357 8.768 169.963 9.16267 169.664 9.696C169.376 10.2187 169.232 10.864 169.232 11.632C169.232 12.4 169.376 13.0507 169.664 13.584C169.963 14.1067 170.352 14.5013 170.832 14.768C171.323 15.024 171.856 15.152 172.432 15.152ZM178.362 11.616C178.362 10.72 178.543 9.936 178.906 9.264C179.268 8.58133 179.764 8.05867 180.394 7.696C181.034 7.32267 181.754 7.136 182.554 7.136C183.322 7.136 184.015 7.32267 184.634 7.696C185.252 8.06933 185.706 8.55467 185.994 9.152V4.16H187.114V16H185.994V14.048C185.727 14.656 185.29 15.1573 184.682 15.552C184.074 15.936 183.359 16.128 182.538 16.128C181.738 16.128 181.018 15.9413 180.378 15.568C179.748 15.1947 179.252 14.6667 178.89 13.984C178.538 13.3013 178.362 12.512 178.362 11.616ZM185.994 11.632C185.994 10.928 185.85 10.3093 185.562 9.776C185.274 9.24267 184.879 8.832 184.378 8.544C183.887 8.256 183.343 8.112 182.746 8.112C182.127 8.112 181.572 8.25067 181.082 8.528C180.591 8.80533 180.202 9.21067 179.914 9.744C179.636 10.2667 179.498 10.8907 179.498 11.616C179.498 12.3307 179.636 12.96 179.914 13.504C180.202 14.0373 180.591 14.448 181.082 14.736C181.572 15.0133 182.127 15.152 182.746 15.152C183.343 15.152 183.887 15.008 184.378 14.72C184.879 14.432 185.274 14.0213 185.562 13.488C185.85 12.9547 185.994 12.336 185.994 11.632ZM197.239 7.264V16H196.119V14.464C195.863 15.008 195.468 15.424 194.935 15.712C194.401 16 193.804 16.144 193.143 16.144C192.097 16.144 191.244 15.824 190.583 15.184C189.921 14.5333 189.591 13.5947 189.591 12.368V7.264H190.695V12.24C190.695 13.1893 190.929 13.9147 191.399 14.416C191.879 14.9173 192.529 15.168 193.351 15.168C194.193 15.168 194.865 14.9013 195.367 14.368C195.868 13.8347 196.119 13.0507 196.119 12.016V7.264H197.239ZM199.284 11.632C199.284 10.7253 199.465 9.936 199.828 9.264C200.19 8.58133 200.692 8.05867 201.332 7.696C201.972 7.32267 202.702 7.136 203.524 7.136C204.601 7.136 205.486 7.40267 206.18 7.936C206.884 8.46933 207.337 9.19467 207.54 10.112H206.34C206.19 9.48267 205.865 8.992 205.364 8.64C204.873 8.27733 204.26 8.096 203.524 8.096C202.937 8.096 202.409 8.22933 201.94 8.496C201.47 8.76267 201.097 9.16267 200.82 9.696C200.553 10.2187 200.42 10.864 200.42 11.632C200.42 12.4 200.553 13.0507 200.82 13.584C201.097 14.1173 201.47 14.5173 201.94 14.784C202.409 15.0507 202.937 15.184 203.524 15.184C204.26 15.184 204.873 15.008 205.364 14.656C205.865 14.2933 206.19 13.792 206.34 13.152H207.54C207.337 14.048 206.884 14.768 206.18 15.312C205.476 15.856 204.59 16.128 203.524 16.128C202.702 16.128 201.972 15.9467 201.332 15.584C200.692 15.2107 200.19 14.688 199.828 14.016C199.465 13.3333 199.284 12.5387 199.284 11.632ZM211.064 8.208V13.632C211.064 14.1653 211.165 14.5333 211.368 14.736C211.571 14.9387 211.928 15.04 212.44 15.04H213.464V16H212.264C211.475 16 210.888 15.8187 210.504 15.456C210.12 15.0827 209.928 14.4747 209.928 13.632V8.208H208.712V7.264H209.928V5.072H211.064V7.264H213.464V8.208H211.064ZM228.134 16H227.014L220.822 6.592V16H219.702V4.816H220.822L227.014 14.208V4.816H228.134V16ZM230.159 11.616C230.159 10.72 230.335 9.936 230.687 9.264C231.049 8.58133 231.545 8.05867 232.175 7.696C232.815 7.32267 233.535 7.136 234.335 7.136C235.167 7.136 235.881 7.328 236.479 7.712C237.087 8.096 237.524 8.58667 237.791 9.184V7.264H238.911V16H237.791V14.064C237.513 14.6613 237.071 15.1573 236.463 15.552C235.865 15.936 235.151 16.128 234.319 16.128C233.529 16.128 232.815 15.9413 232.175 15.568C231.545 15.1947 231.049 14.6667 230.687 13.984C230.335 13.3013 230.159 12.512 230.159 11.616ZM237.791 11.632C237.791 10.928 237.647 10.3093 237.359 9.776C237.071 9.24267 236.676 8.832 236.175 8.544C235.684 8.256 235.14 8.112 234.543 8.112C233.924 8.112 233.369 8.25067 232.879 8.528C232.388 8.80533 231.999 9.21067 231.711 9.744C231.433 10.2667 231.295 10.8907 231.295 11.616C231.295 12.3307 231.433 12.96 231.711 13.504C231.999 14.0373 232.388 14.448 232.879 14.736C233.369 15.0133 233.924 15.152 234.543 15.152C235.14 15.152 235.684 15.008 236.175 14.72C236.676 14.432 237.071 14.0213 237.359 13.488C237.647 12.9547 237.791 12.336 237.791 11.632ZM251.868 7.104C252.892 7.104 253.724 7.42933 254.364 8.08C255.014 8.72 255.34 9.65333 255.34 10.88V16H254.236V11.008C254.236 10.0587 254.006 9.33333 253.548 8.832C253.089 8.33067 252.465 8.08 251.676 8.08C250.854 8.08 250.198 8.352 249.708 8.896C249.217 9.44 248.972 10.2293 248.972 11.264V16H247.868V11.008C247.868 10.0587 247.638 9.33333 247.18 8.832C246.721 8.33067 246.092 8.08 245.292 8.08C244.47 8.08 243.814 8.352 243.324 8.896C242.833 9.44 242.588 10.2293 242.588 11.264V16H241.468V7.264H242.588V8.768C242.865 8.224 243.26 7.81333 243.772 7.536C244.284 7.248 244.854 7.104 245.484 7.104C246.241 7.104 246.902 7.28533 247.468 7.648C248.044 8.01067 248.46 8.544 248.716 9.248C248.95 8.55467 249.35 8.02667 249.916 7.664C250.492 7.29067 251.142 7.104 251.868 7.104ZM265.731 11.184C265.731 11.568 265.72 11.8613 265.699 12.064H258.451C258.483 12.7253 258.643 13.2907 258.931 13.76C259.219 14.2293 259.598 14.5867 260.067 14.832C260.536 15.0667 261.048 15.184 261.603 15.184C262.328 15.184 262.936 15.008 263.427 14.656C263.928 14.304 264.259 13.8293 264.419 13.232H265.603C265.39 14.0853 264.931 14.784 264.227 15.328C263.534 15.8613 262.659 16.128 261.603 16.128C260.782 16.128 260.046 15.9467 259.395 15.584C258.744 15.2107 258.232 14.688 257.859 14.016C257.496 13.3333 257.315 12.5387 257.315 11.632C257.315 10.7253 257.496 9.93067 257.859 9.248C258.222 8.56533 258.728 8.04267 259.379 7.68C260.03 7.31733 260.771 7.136 261.603 7.136C262.435 7.136 263.16 7.31733 263.779 7.68C264.408 8.04267 264.888 8.53333 265.219 9.152C265.56 9.76 265.731 10.4373 265.731 11.184ZM264.595 11.152C264.606 10.5013 264.472 9.94667 264.195 9.488C263.928 9.02933 263.56 8.68267 263.091 8.448C262.622 8.21333 262.11 8.096 261.555 8.096C260.723 8.096 260.014 8.36267 259.427 8.896C258.84 9.42933 258.515 10.1813 258.451 11.152H264.595Z" fill="#606060"/>
</svg>
